<svg xmlns="http://www.w3.org/2000/svg" viewBox="0 0 1000 228">
  <path fill="#ffffff" d="M96.6 204.7c-1.3 0-2.7-.3-4-.8-5.3-2.2-7.7-8.3-5.5-13.5l71.4-169.6h-21.7L62.1 198.4c-1.6 3.8-5.4 6.3-9.5 6.3s-7.9-2.5-9.5-6.3L.8 98c-1.3-3.2-1-6.8.9-9.7 1.9-2.9 5.1-4.6 8.6-4.6h41.3C57.3 83.7 62 88.3 62 94s-4.6 10.3-10.3 10.3H25.9l26.7 63.4L120.5 6.4c1.6-3.8 5.4-6.3 9.5-6.3h44.1c3.5 0 6.7 1.7 8.6 4.6 1.9 2.9 2.3 6.5.9 9.7l-77.4 183.9c-1.7 4-5.5 6.4-9.6 6.4zm-6-167.5C90.6 16.7 76 0 58.1 0S25.7 16.7 25.7 37.2s14.6 37.2 32.5 37.2 32.4-16.7 32.4-37.2zm-20.7 0c0 9-5.4 16.5-11.8 16.5s-11.8-7.6-11.8-16.5 5.4-16.5 11.8-16.5 11.8 7.5 11.8 16.5zm168.8 158.9l41.8-108.5h-26.4l-29.9 83.5-30.1-83.5h-26.4l42 108.5h29zm69.5 2c26 0 41.7-18.9 41.7-41.3 0-22.3-15.6-41.2-41.7-41.2-25.9 0-41.5 18.9-41.5 41.2 0 22.4 15.6 41.3 41.5 41.3zm0-18.4c-12.9 0-20-10.6-20-22.9 0-12.2 7.2-22.8 20-22.8s20.2 10.6 20.2 22.8c-.1 12.3-7.4 22.9-20.2 22.9zm77.6 18.4c6.5 0 11.2-1.3 14.5-3.1v-17.6c-1.6.8-5.7 1.7-8.8 1.7-4.6 0-7.2-3.7-7.2-8.6v-34.9h15.9v-18.1h-15.9V96h-20.8v21.5h-13v18.1h13v41c0 14 7.8 21.5 22.3 21.5zm33.2-89c6.8 0 12.4-5.5 12.4-12.4 0-6.8-5.5-12.2-12.4-12.2-6.7 0-12.4 5.4-12.4 12.2 0 6.8 5.7 12.4 12.4 12.4zm10.4 87v-78.6h-20.7v78.6h20.7zm83.1 0v-55.5c0-15.3-8.3-25.1-25.5-25.1-12.9 0-22.5 6.2-27.5 12.2v-10.3h-20.7V196h20.7v-52.9c3.4-4.7 9.8-9.3 17.9-9.3 8.8 0 14.5 3.7 14.5 14.6v47.5h20.6zm193.6 0L737 87.6h-15L698.1 178l-24.9-90.5H662L637.1 178 613 87.6h-15l31 108.5h14.6l23.9-87.5 23.9 87.5h14.7zM555.7 228c19.4 0 42.5-7.3 42.5-37.3v-73.2h-20.8v10.1c-6.3-8-14.8-12-24.2-12-19.9 0-34.7 14.3-34.7 40 0 26.2 15 40 34.7 40 9.6 0 18.1-4.6 24.2-12.4v8c0 15.5-11.7 19.9-21.6 19.9-9.9 0-18.2-2.8-24.6-9.8l-9.3 15c9.9 8.6 20.3 11.7 33.8 11.7zm2.8-49.4c-12 0-18.7-10.6-18.7-22.9 0-12.2 6.7-22.8 18.7-22.8s18.9 10.6 18.9 22.8c-.1 12.3-6.9 22.9-18.9 22.9zm210.4 19.5c23.9 0 38.9-18.5 38.9-41.3 0-22.8-15-41.2-38.9-41.2S730 134 730 156.8c0 22.7 15 41.3 38.9 41.3zm0-10.9c-16.8 0-26.2-14.3-26.2-30.4 0-15.9 9.4-30.3 26.2-30.3 16.8 0 26 14.3 26 30.3.1 16-9.2 30.4-26 30.4zm61.5 8.9v-55.6c3.6-6.3 13.8-12.5 21.3-12.5 2 0 3.4.2 4.9.5V116c-10.7 0-19.9 6-26.2 14.3v-12.7h-12.2v78.6h12.2zm105 0l-35-43 34.8-35.6h-15.5l-41.3 41.8V87.6h-12.2v108.5h12.2v-22.5l13-12.9 28.3 35.3h15.7zm33.7 2c20.3 0 30.9-10.6 30.9-23.8 0-30.6-48.7-19.2-48.7-36.4 0-7 6.7-12.4 17.4-12.4 10.1 0 18.7 4.2 23.4 9.9l5.7-8.5c-6.3-6.3-15.8-11.4-29.1-11.4-18.7 0-29.3 10.4-29.3 22.6 0 29.1 48.7 17.4 48.7 36.4 0 7.8-6.5 13.5-18.6 13.5-10.7 0-20.7-5.2-25.9-11.2l-6.3 8.8c8 8.6 18.9 12.5 31.8 12.5z"/>
</svg>