<?xml version="1.0" encoding="utf-8"?>
<!-- Generator: Adobe Illustrator 24.3.0, SVG Export Plug-In . SVG Version: 6.00 Build 0)  -->
<svg version="1.1" id="Layer_1" xmlns="http://www.w3.org/2000/svg" xmlns:xlink="http://www.w3.org/1999/xlink" x="0px" y="0px"
	 viewBox="0 0 900 1000" style="enable-background:new 0 0 900 1000;" xml:space="preserve">
<style type="text/css">
	.st0{fill:#FFFFFF;}
</style>
<g>
	<path class="st0" d="M471.7,1000c-6.5,0-13.1-1.3-19.5-4c-25.7-10.8-37.7-40.4-26.9-66.1l348.4-828.6H667.9L303,969.1
		c-7.9,18.7-26.2,30.9-46.5,30.9s-38.6-12.2-46.5-30.9L4,478.9c-6.6-15.6-4.9-33.4,4.5-47.5c9.3-14.1,25.1-22.5,42-22.5H252
		c27.8,0,50.4,22.6,50.4,50.5c0,27.9-22.6,50.5-50.4,50.5H126.4l130.2,309.6L587.9,31.3c7.9-18.7,26.2-30.9,46.5-30.9h215.2
		c16.9,0,32.7,8.5,42,22.5c9.3,14.1,11,31.9,4.5,47.5L518.2,969.1C510.1,988.4,491.4,1000,471.7,1000z M442.2,181.7
		C442.2,81.5,371.1,0,283.8,0S125.3,81.5,125.3,181.7s71.1,181.7,158.4,181.7S442.2,281.9,442.2,181.7z M341.4,181.7
		c0,43.8-26.4,80.8-57.6,80.8s-57.6-37-57.6-80.8s26.4-80.8,57.6-80.8S341.4,137.9,341.4,181.7z"/>
</g>
</svg>